<?xml version="1.0" standalone="no"?>
<!DOCTYPE svg PUBLIC "-//W3C//DTD SVG 20010904//EN"
 "http://www.w3.org/TR/2001/REC-SVG-20010904/DTD/svg10.dtd">
<svg version="1.0" xmlns="http://www.w3.org/2000/svg"
 width="240.000000pt" height="399.000000pt" viewBox="0 0 240.000000 399.000000"
 preserveAspectRatio="xMidYMid meet">

<g transform="translate(0.000000,399.000000) scale(0.100000,-0.100000)"
fill="#000000" stroke="none">
<path d="M1075 3980 c-517 -55 -952 -459 -1051 -975 -24 -129 -22 -321 6 -454
40 -195 109 -339 252 -528 115 -152 165 -232 231 -373 113 -240 156 -434 170
-779 3 -68 5 -75 35 -102 l32 -29 450 0 450 0 32 29 32 28 8 149 c12 237 45
404 115 579 73 183 141 304 278 490 106 143 156 230 199 340 109 284 107 595
-5 886 -73 190 -242 402 -417 525 -82 57 -234 134 -322 162 -137 44 -354 67
-495 52z m333 -235 c293 -62 559 -277 685 -554 57 -128 80 -239 80 -401 0
-126 -3 -158 -26 -244 -36 -133 -88 -235 -198 -386 -51 -69 -115 -161 -142
-205 -63 -101 -155 -292 -197 -410 -55 -156 -99 -379 -100 -497 0 -96 27 -88
-310 -88 -338 0 -310 -8 -310 91 0 156 -62 420 -146 624 -65 160 -137 279
-286 478 -98 132 -153 233 -191 353 -54 172 -58 339 -11 523 95 377 430 677
815 731 85 12 246 5 337 -15z"/>
<path d="M753 599 c-89 -26 -100 -155 -16 -198 30 -15 896 -15 926 0 37 19 57
52 57 95 0 52 -28 90 -78 104 -47 13 -844 12 -889 -1z"/>
<path d="M881 194 c-13 -9 -30 -32 -38 -51 -18 -43 -4 -93 34 -123 24 -19 40
-20 324 -20 l299 0 32 28 c27 25 31 36 31 77 0 41 -4 52 -31 77 l-32 28 -298
0 c-259 0 -301 -2 -321 -16z"/>
</g>
</svg>
